<svg xmlns="http://www.w3.org/2000/svg" viewBox="0 0 950 440">
<text font-family="Acme" font-size="20" x="30" y="30">Acme</text>
<text font-family="Alef" font-size="20" x="30" y="60">Alef</text>
<text font-family="Alike" font-size="20" x="30" y="90">Alike</text>
<text font-family="Allura" font-size="20" x="30" y="120">Allura</text>
<text font-family="Amaranth" font-size="20" x="30" y="150">Amaranth</text>
<text font-family="Amiri" font-size="20" x="30" y="180">Amiri</text>
<text font-family="Andika" font-size="20" x="30" y="210">Andika</text>
<text font-family="Arapey" font-size="20" x="30" y="240">Arapey</text>
<text font-family="Arima Madurai" font-size="20" x="30" y="270">Arima Madurai</text>
<text font-family="Arsenal" font-size="20" x="30" y="300">Arsenal</text>
<text font-family="Artifika" font-size="20" x="30" y="330">Artifika</text>
<text font-family="Bellefair" font-size="20" x="30" y="360">Bellefair</text>
<text font-family="Belleza" font-size="20" x="30" y="390">Belleza</text>
<text font-family="Bentham" font-size="20" x="30" y="420">Bentham</text>
<text font-family="Bilbo" font-size="20" x="210" y="30">Bilbo</text>
<text font-family="Bubbler One" font-size="20" x="210" y="60">Bubbler One</text>
<text font-family="Cabin Condensed" font-size="20" x="210" y="90">Cabin Condensed</text>
<text font-family="Calligraffitti" font-size="20" x="210" y="120">Calligraffitti</text>
<text font-family="Cookie" font-size="20" x="210" y="150">Cookie</text>
<text font-family="Cormorant Upright" font-size="20" x="210" y="180">Cormorant Upright</text>
<text font-family="Courgette" font-size="20" x="210" y="210">Courgette</text>
<text font-family="Crimson Text" font-size="20" x="210" y="240">Crimson Text</text>
<text font-family="Dancing Script" font-size="20" x="210" y="270">Dancing Script</text>
<text font-family="EB Garamond" font-size="20" x="210" y="300">EB Garamond</text>
<text font-family="Euphoria Script" font-size="20" x="210" y="330">Euphoria Script</text>
<text font-family="Exo" font-size="20" x="210" y="360">Exo</text>
<text font-family="Farsan" font-size="20" x="210" y="390">Farsan</text>
<text font-family="Federo" font-size="20" x="210" y="420">Federo</text>
<text font-family="Fondamento" font-size="20" x="390" y="30">Fondamento</text>
<text font-family="Forum" font-size="20" x="390" y="60">Forum</text>
<text font-family="Great Vibes" font-size="20" x="390" y="90">Great Vibes</text>
<text font-family="Halant" font-size="20" x="390" y="120">Halant</text>
<text font-family="Handlee" font-size="20" x="390" y="150">Handlee</text>
<text font-family="Inder" font-size="20" x="390" y="180">Inder</text>
<text font-family="Josefin Sans" font-size="20" x="390" y="210">Josefin Sans</text>
<text font-family="Julee" font-size="20" x="390" y="240">Julee</text>
<text font-family="Julius Sans One" font-size="20" x="390" y="270">Julius Sans One</text>
<text font-family="Junge" font-size="20" x="390" y="300">Junge</text>
<text font-family="Kaushan Script" font-size="20" x="390" y="330">Kaushan Script</text>
<text font-family="Lancelot" font-size="20" x="390" y="360">Lancelot</text>
<text font-family="Lateef" font-size="20" x="390" y="390">Lateef</text>
<text font-family="Marcellus" font-size="20" x="390" y="420">Marcellus</text>
<text font-family="Merienda" font-size="20" x="570" y="30">Merienda</text>
<text font-family="Mirza" font-size="20" x="570" y="60">Mirza</text>
<text font-family="Molengo" font-size="20" x="570" y="90">Molengo</text>
<text font-family="Monoton" font-size="20" x="570" y="120">Monoton</text>
<text font-family="Neuton" font-size="20" x="570" y="150">Neuton</text>
<text font-family="Open Sans" font-size="20" x="570" y="180">Open Sans</text>
<text font-family="Oregano" font-size="20" x="570" y="210">Oregano</text>
<text font-family="Paprika" font-size="20" x="570" y="240">Paprika</text>
<text font-family="Pirata One" font-size="20" x="570" y="270">Pirata One</text>
<text font-family="Playball" font-size="20" x="570" y="300">Playball</text>
<text font-family="Poiret One" font-size="20" x="570" y="330">Poiret One</text>
<text font-family="Pontano Sans" font-size="20" x="570" y="360">Pontano Sans</text>
<text font-family="Prata" font-size="20" x="570" y="390">Prata</text>
<text font-family="Quicksand" font-size="20" x="570" y="420">Quicksand</text>
<text font-family="Rationale" font-size="20" x="750" y="30">Rationale</text>
<text font-family="Reem Kufi Regular" font-size="20" x="750" y="60">Reem Kufi Regular</text>
<text font-family="Rochester" font-size="20" x="750" y="90">Rochester</text>
<text font-family="Ruluko" font-size="20" x="750" y="120">Ruluko</text>
<text font-family="Sail" font-size="20" x="750" y="150">Sail</text>
<text font-family="Satisfy" font-size="20" x="750" y="180">Satisfy</text>
<text font-family="Spectral" font-size="20" x="750" y="210">Spectral</text>
<text font-family="Tangerine" font-size="20" x="750" y="240">Tangerine</text>
<text font-family="Tenor Sans" font-size="20" x="750" y="270">Tenor Sans</text>
<text font-family="Tulpen One" font-size="20" x="750" y="300">Tulpen One</text>
<text font-family="Ubuntu" font-size="20" x="750" y="330">Ubuntu</text>
<text font-family="Unna" font-size="20" x="750" y="360">Unna</text>
<text font-family="Vidaloka " font-size="20" x="750" y="390">Vidaloka </text>
<text font-family="Voltaire" font-size="20" x="750" y="420">Voltaire</text>
</svg>